<svg xmlns="http://www.w3.org/2000/svg" version="1.1" xmlns:xlink="http://www.w3.org/1999/xlink" xmlns:svgjs="http://svgjs.com/svgjs" width="1920" height="1080" preserveAspectRatio="none" viewBox="0 0 1920 1080"><g mask="url(&quot;#SvgjsMask1031&quot;)" fill="none"><path d="M882.737,255.011C942.954,250.7,975.501,191.331,1005.598,138.997C1035.56,86.896,1072.485,27.891,1043.688,-24.863C1014.211,-78.863,944.258,-86.291,882.737,-86.078C821.713,-85.867,756.71,-75.083,723.704,-23.755C688.374,31.188,692.724,102.341,725.093,159.079C757.762,216.345,816.976,259.719,882.737,255.011" fill="rgba(67, 76, 94, 0.48)" class="triangle-float1"></path><path d="M243.201,323.272C301.916,326.306,364.653,309.146,394.472,258.476C424.617,207.252,410.811,142.931,378.799,92.853C349.345,46.777,297.882,22.613,243.201,21.838C186.963,21.04,128.58,40.019,100.775,88.91C73.216,137.369,87.831,196.488,116.783,244.128C144.456,289.665,189.986,320.522,243.201,323.272" fill="rgba(67, 76, 94, 0.48)" class="triangle-float1"></path><path d="M1854.676,1274.058C1914.135,1272.176,1972.04,1247.594,2001.805,1196.087C2031.59,1144.546,2024.118,1082.019,1995.965,1029.569C1965.959,973.666,1918.119,922.7,1854.676,921.979C1790.294,921.248,1739.946,970.555,1707.716,1026.294C1675.441,1082.11,1657.586,1150.486,1690.479,1205.941C1722.879,1260.565,1791.198,1276.067,1854.676,1274.058" fill="rgba(67, 76, 94, 0.48)" class="triangle-float3"></path><path d="M1375.75,561.062C1488.745,568.404,1602.11,513.933,1656.967,414.875C1710.422,318.349,1684.59,201.57,1626.931,107.495C1572.173,18.152,1480.484,-47.349,1375.75,-43.957C1275.87,-40.722,1197.818,34.481,1151.255,122.902C1108.119,204.815,1109.211,299.636,1151.425,382.028C1198.182,473.286,1273.427,554.414,1375.75,561.062" fill="rgba(67, 76, 94, 0.48)" class="triangle-float3"></path><path d="M1784.158,383.06C1862.39,381.205,1936.219,344.75,1976.006,277.366C2016.464,208.846,2020.399,122.028,1978.068,54.649C1938.006,-9.12,1859.449,-29.672,1784.158,-28.007C1712.258,-26.417,1644.235,2.928,1604.557,62.91C1560.054,130.185,1536.408,216.508,1575.873,286.856C1615.976,358.342,1702.214,385.003,1784.158,383.06" fill="rgba(67, 76, 94, 0.48)" class="triangle-float1"></path><path d="M417.73,1254.166C497.023,1255.493,577.926,1230.804,620.529,1163.915C666.159,1092.273,669.653,999.457,626.589,926.244C584.073,853.964,501.567,820.991,417.73,819.142C329.994,817.207,235.505,840.292,192.284,916.668C149.518,992.24,178.124,1085.113,226.357,1157.319C268.92,1221.038,341.114,1252.884,417.73,1254.166" fill="rgba(67, 76, 94, 0.48)" class="triangle-float2"></path><path d="M1608.815,265.615C1642.626,267.772,1678.294,257.229,1696.022,228.357C1714.443,198.356,1710.374,160.016,1692.152,129.894C1674.577,100.84,1642.756,83.202,1608.815,84.195C1576.47,85.142,1548.463,105.835,1533.518,134.536C1519.661,161.146,1524.02,192.322,1538.964,218.337C1553.974,244.467,1578.742,263.696,1608.815,265.615" fill="rgba(67, 76, 94, 0.48)" class="triangle-float1"></path><path d="M1372.914,467.49C1437.387,471.313,1505.914,447.026,1536.243,390.004C1565.319,335.338,1539.659,270.732,1504.778,219.574C1474.814,175.627,1426.098,149.677,1372.914,150.457C1321.121,151.216,1274.187,178.902,1247.579,223.344C1220.182,269.104,1215.652,324.989,1240.01,372.437C1266.67,424.37,1314.64,464.034,1372.914,467.49" fill="rgba(67, 76, 94, 0.48)" class="triangle-float3"></path><path d="M637.963,640.718C703.557,639.384,766.966,606.735,796.592,548.197C823.977,494.087,803.117,431.153,769.606,380.608C740.015,335.976,691.489,310.531,637.963,308.936C581.132,307.243,524.351,325.586,491.995,372.338C454.555,426.437,436.314,497.09,467.748,554.886C500.288,614.715,569.871,642.103,637.963,640.718" fill="rgba(67, 76, 94, 0.48)" class="triangle-float3"></path><path d="M443.169,1017.822C509.472,1016.579,564.838,975.358,600.623,919.527C640.157,857.846,673.649,780.131,635.673,717.479C598.455,656.078,514.961,658.684,443.169,659.763C374.08,660.802,297.351,664.711,260.437,723.121C221.683,784.442,236.919,863.979,275.146,925.629C311.229,983.821,374.71,1019.105,443.169,1017.822" fill="rgba(67, 76, 94, 0.48)" class="triangle-float2"></path><path d="M178.792,489.63C204.634,490.158,227.884,474.683,240.74,452.26C253.526,429.958,252.901,403.334,241.468,380.309C228.446,354.085,208.061,328.255,178.792,327.505C148.621,326.732,123.175,349.653,110.296,376.948C99.065,400.748,107.409,427.328,121.079,449.816C134.09,471.221,153.748,489.118,178.792,489.63" fill="rgba(67, 76, 94, 0.48)" class="triangle-float1"></path><path d="M1545.117,389.707C1605.239,385.709,1656.806,353.287,1689.635,302.761C1726.341,246.268,1754.046,176.449,1722.281,117.038C1689.211,55.187,1615.247,31.49,1545.117,32.464C1476.872,33.412,1412.396,63.932,1376.276,121.843C1337.881,183.401,1324.292,263.105,1362.979,324.481C1399.835,382.953,1476.151,394.293,1545.117,389.707" fill="rgba(67, 76, 94, 0.48)" class="triangle-float1"></path><path d="M1890.757,1222.015C1989.769,1224.994,2097.087,1200.565,2146.391,1114.65C2195.539,1029.007,2157.023,927.32,2109.567,840.729C2059.524,749.418,1994.69,654.522,1890.757,648.207C1778.238,641.37,1671.669,710.58,1620.475,811.012C1573.136,903.882,1603.173,1012.935,1660.447,1100.029C1711.607,1177.826,1797.688,1219.215,1890.757,1222.015" fill="rgba(67, 76, 94, 0.48)" class="triangle-float3"></path></g><defs><mask id="SvgjsMask1031"><rect width="1920" height="1080" fill="#ffffff"></rect></mask><style>
            @keyframes float1 {
                0%{transform: translate(0, 0)}
                50%{transform: translate(-10px, 0)}
                100%{transform: translate(0, 0)}
            }

            .triangle-float1 {
                animation: float1 5s infinite;
            }

            @keyframes float2 {
                0%{transform: translate(0, 0)}
                50%{transform: translate(-5px, -5px)}
                100%{transform: translate(0, 0)}
            }

            .triangle-float2 {
                animation: float2 4s infinite;
            }

            @keyframes float3 {
                0%{transform: translate(0, 0)}
                50%{transform: translate(0, -10px)}
                100%{transform: translate(0, 0)}
            }

            .triangle-float3 {
                animation: float3 6s infinite;
            }
        </style></defs></svg>