<svg id="visual" viewBox="0 0 1920 1080" width="1920" height="1080" xmlns="http://www.w3.org/2000/svg" xmlns:xlink="http://www.w3.org/1999/xlink" version="1.1"><rect x="0" y="0" width="1920" height="1080" fill="#2E3440"></rect><defs><linearGradient id="grad1_0" x1="43.8%" y1="0%" x2="100%" y2="100%"><stop offset="14.444444444444446%" stop-color="#bf616a" stop-opacity="1"></stop><stop offset="85.55555555555554%" stop-color="#bf616a" stop-opacity="1"></stop></linearGradient></defs><defs><linearGradient id="grad1_1" x1="43.8%" y1="0%" x2="100%" y2="100%"><stop offset="14.444444444444446%" stop-color="#bf616a" stop-opacity="1"></stop><stop offset="85.55555555555554%" stop-color="#6e4c6d" stop-opacity="1"></stop></linearGradient></defs><defs><linearGradient id="grad1_2" x1="43.8%" y1="0%" x2="100%" y2="100%"><stop offset="14.444444444444446%" stop-color="#2e3440" stop-opacity="1"></stop><stop offset="85.55555555555554%" stop-color="#6e4c6d" stop-opacity="1"></stop></linearGradient></defs><defs><linearGradient id="grad2_0" x1="0%" y1="0%" x2="56.3%" y2="100%"><stop offset="14.444444444444446%" stop-color="#bf616a" stop-opacity="1"></stop><stop offset="85.55555555555554%" stop-color="#bf616a" stop-opacity="1"></stop></linearGradient></defs><defs><linearGradient id="grad2_1" x1="0%" y1="0%" x2="56.3%" y2="100%"><stop offset="14.444444444444446%" stop-color="#6e4c6d" stop-opacity="1"></stop><stop offset="85.55555555555554%" stop-color="#bf616a" stop-opacity="1"></stop></linearGradient></defs><defs><linearGradient id="grad2_2" x1="0%" y1="0%" x2="56.3%" y2="100%"><stop offset="14.444444444444446%" stop-color="#6e4c6d" stop-opacity="1"></stop><stop offset="85.55555555555554%" stop-color="#2e3440" stop-opacity="1"></stop></linearGradient></defs><g transform="translate(1920, 0)"><path d="M0 540C-57.7 531 -115.3 522 -161.3 496.5C-207.3 470.9 -241.6 428.9 -291 400.5C-340.3 372 -404.8 357.1 -436.9 317.4C-468.9 277.7 -468.5 213.1 -480.3 156.1C-492.1 99 -516 49.5 -540 0L0 0Z" fill="#47425b"></path><path d="M0 360C-38.4 354 -76.9 348 -107.5 331C-138.2 314 -161 285.9 -194 267C-226.9 248 -269.9 238.1 -291.2 211.6C-312.6 185.1 -312.3 142.1 -320.2 104C-328 66 -344 33 -360 0L0 0Z" fill="#995572"></path><path d="M0 180C-19.2 177 -38.4 174 -53.8 165.5C-69.1 157 -80.5 143 -97 133.5C-113.4 124 -134.9 119 -145.6 105.8C-156.3 92.6 -156.2 71 -160.1 52C-164 33 -172 16.5 -180 0L0 0Z" fill="#bf616a"></path></g><g transform="translate(0, 1080)"><path d="M0 -540C59.8 -537.5 119.6 -535.1 165.6 -509.8C211.6 -484.5 243.8 -436.3 294.5 -405.3C345.2 -374.3 414.5 -360.5 436.9 -317.4C459.3 -274.3 434.8 -202.1 444.1 -144.3C453.5 -86.5 496.8 -43.3 540 0L0 0Z" fill="#47425b"></path><path d="M0 -360C39.9 -358.4 79.8 -356.7 110.4 -339.8C141.1 -323 162.5 -290.9 196.3 -270.2C230.1 -249.5 276.3 -240.3 291.2 -211.6C306.2 -182.9 289.8 -134.7 296.1 -96.2C302.3 -57.7 331.2 -28.8 360 0L0 0Z" fill="#995572"></path><path d="M0 -180C19.9 -179.2 39.9 -178.4 55.2 -169.9C70.5 -161.5 81.3 -145.4 98.2 -135.1C115.1 -124.8 138.2 -120.2 145.6 -105.8C153.1 -91.4 144.9 -67.4 148 -48.1C151.2 -28.8 165.6 -14.4 180 0L0 0Z" fill="#bf616a"></path></g></svg>