<svg xmlns="http://www.w3.org/2000/svg" version="1.1" xmlns:xlink="http://www.w3.org/1999/xlink" xmlns:svgjs="http://svgjs.com/svgjs" width="1920" height="1080" preserveAspectRatio="none" viewBox="0 0 1920 1080"><g mask="url(&quot;#SvgjsMask1026&quot;)" fill="none"><path d="M1165.95 685.35a92.83 92.83 0 1 0 134.95-127.52z" stroke="rgba(235, 203, 139, 1)"></path><path d="M1261.47 135.28a53.09 53.09 0 1 0-47.71 94.86z" stroke="rgba(163, 190, 140, 1)"></path><path d="M1118.93 218.02a20.73 20.73 0 1 0 39.58 12.32z" stroke="rgba(191, 97, 106, 1)"></path><path d="M273.87 638.39a75.45 75.45 0 1 0-149.65 19.39z" stroke="rgba(208, 135, 112, 1)"></path><path d="M1719.65 326.33a26.35 26.35 0 1 0-32.87 41.19z" fill="rgba(208, 135, 112, 1)"></path><path d="M1099.71 38.02L1179.71 38.02L1179.71 118.02L1099.71 118.02z" stroke="rgba(180, 142, 173, 1)"></path><path d="M1394.52 546.24L1484.5 546.24L1484.5 566.8L1394.52 566.8z" stroke="rgba(191, 97, 106, 1)"></path><path d="M1566.1 50.69L1602.57 50.69L1602.57 55.56L1566.1 55.56z" fill="rgba(180, 142, 173, 1)"></path><path d="M1555.55 874.3 a58.09 58.09 0 1 0 116.18 0 a58.09 58.09 0 1 0 -116.18 0z" fill="rgba(208, 135, 112, 1)"></path><path d="M984.42 782.38a29.95 29.95 0 1 0-33.14-49.9z" fill="rgba(163, 190, 140, 1)"></path><path d="M1181.25 826.9L1235.6 826.9L1235.6 881.25L1181.25 881.25z" fill="rgba(180, 142, 173, 1)"></path><path d="M1716.66 715.88a26.06 26.06 0 1 0 42.9 29.6z" fill="rgba(163, 190, 140, 1)"></path><path d="M909.92 275.65L1015.71 275.65L1015.71 381.44L909.92 381.44z" stroke="rgba(163, 190, 140, 1)"></path><path d="M1570.26 89.82a64.42 64.42 0 1 0-77.38 103.01z" stroke="rgba(163, 190, 140, 1)"></path><path d="M942.11 556.4L1007.78 556.4L1007.78 622.07L942.11 622.07z" fill="rgba(180, 142, 173, 1)"></path><path d="M1782.57 539.56L1878.16 539.56L1878.16 635.15L1782.57 635.15z" fill="rgba(235, 203, 139, 1)"></path><path d="M638.84 283.54a63.41 63.41 0 1 0-120.03 40.95z" stroke="rgba(208, 135, 112, 1)"></path><path d="M1705.39 520.37a93.29 93.29 0 1 0 156.42-101.7z" stroke="rgba(191, 97, 106, 1)"></path><path d="M1477.03 107.4a29.66 29.66 0 1 0-47.91 34.98z" fill="rgba(191, 97, 106, 1)"></path><path d="M748.13 482.05a66.85 66.85 0 1 0-128.23 37.86z" fill="rgba(191, 97, 106, 1)"></path><path d="M1166.1 587.72L1261.92 587.72L1261.92 683.54L1166.1 683.54z" stroke="rgba(163, 190, 140, 1)"></path><path d="M100.02 843.21L116.49 843.21L116.49 933.29L100.02 933.29z" fill="rgba(180, 142, 173, 1)"></path><path d="M572.85 594.33 a84.53 84.53 0 1 0 169.06 0 a84.53 84.53 0 1 0 -169.06 0z" fill="rgba(163, 190, 140, 1)"></path></g><defs><mask id="SvgjsMask1026"><rect width="1920" height="1080" fill="#ffffff"></rect></mask></defs></svg>